<?xml version="1.0" encoding="utf-8"?>
<!-- Generator: Adobe Illustrator 15.1.0, SVG Export Plug-In . SVG Version: 6.00 Build 0)  -->
<!DOCTYPE svg PUBLIC "-//W3C//DTD SVG 1.1//EN" "http://www.w3.org/Graphics/SVG/1.1/DTD/svg11.dtd">
<svg version="1.1" id="Layer_1" xmlns="http://www.w3.org/2000/svg" xmlns:xlink="http://www.w3.org/1999/xlink" x="0px" y="0px"
	 width="300px" height="66px" viewBox="0 0 300 66" enable-background="new 0 0 300 66" xml:space="preserve">
<g>
	<path fill="#3793D0" d="M21.41,42.79V25.991c0-3.074-0.463-5.227-1.389-6.458c-0.926-1.231-2.477-1.847-4.651-1.847
		c-1.168,0-2.391,0.351-3.667,1.052c-1.277,0.701-2.256,1.564-2.939,2.588V42.79H3.641V13.911h3.505l1.618,3.721
		c1.689-2.84,4.449-4.261,8.278-4.261c6.328,0,9.492,3.847,9.492,11.541V42.79H21.41z"/>
	<path fill="#3793D0" d="M36.295,42.79V18.226h-3.964v-4.314h9.087V42.79H36.295z M39.099,2.99c0.88,0,1.631,0.31,2.251,0.931
		c0.62,0.62,0.93,1.361,0.93,2.224c0,0.881-0.31,1.631-0.93,2.252c-0.62,0.62-1.371,0.93-2.251,0.93c-0.863,0-1.604-0.31-2.225-0.93
		c-0.62-0.621-0.93-1.371-0.93-2.252c0-0.88,0.305-1.626,0.917-2.238C37.472,3.296,38.218,2.99,39.099,2.99z"/>
	<path fill="#3793D0" d="M47.674,41.064l1.806-4.854c2.858,1.869,5.159,2.804,6.903,2.804c3.164,0,4.746-1.33,4.746-3.99
		c0-1.905-1.528-3.542-4.584-4.908c-2.355-1.079-3.941-1.896-4.759-2.454c-0.818-0.557-1.528-1.191-2.13-1.901
		c-0.602-0.709-1.051-1.465-1.348-2.265c-0.296-0.8-0.445-1.659-0.445-2.575c0-2.373,0.863-4.224,2.589-5.555
		c1.726-1.33,3.981-1.996,6.768-1.996c2.103,0,4.754,0.666,7.954,1.996l-1.456,4.746c-2.031-1.618-4.071-2.427-6.121-2.427
		c-1.223,0-2.251,0.288-3.087,0.863c-0.836,0.576-1.254,1.304-1.254,2.184c0,1.852,1.051,3.254,3.155,4.207l3.667,1.672
		c2.247,1.024,3.883,2.193,4.908,3.505c1.024,1.313,1.537,2.957,1.537,4.934c0,2.589-0.908,4.616-2.724,6.081
		c-1.816,1.465-4.333,2.197-7.55,2.197C53.21,43.329,50.352,42.574,47.674,41.064z"/>
	<path fill="#3793D0" d="M76.768,13.911v18.417c0,4.458,1.932,6.687,5.797,6.687c1.689,0,3.236-0.485,4.638-1.456
		c1.402-0.971,2.328-2.094,2.777-3.37V13.911h5.123V42.79h-5.123v-3.991c-0.576,1.133-1.73,2.171-3.465,3.115
		c-1.735,0.943-3.429,1.415-5.083,1.415c-3.164,0-5.586-0.907-7.267-2.724c-1.681-1.815-2.521-4.395-2.521-7.738V13.911H76.768z"/>
	<path fill="#3793D0" d="M135.524,42.79V24.508c0-4.548-1.968-6.822-5.905-6.822c-1.24,0-2.4,0.382-3.479,1.146
		c-1.079,0.764-1.816,1.631-2.211,2.602V42.79h-5.123V22.27c0-1.42-0.535-2.539-1.604-3.357c-1.07-0.818-2.485-1.227-4.247-1.227
		c-1.024,0-2.117,0.396-3.276,1.187c-1.16,0.791-1.982,1.663-2.467,2.616V42.79h-5.124V13.911h3.344l1.699,3.343
		c1.977-2.588,4.449-3.883,7.415-3.883c4.135,0,7.029,1.286,8.683,3.856c0.575-1.096,1.645-2.013,3.209-2.75
		c1.564-0.737,3.172-1.105,4.827-1.105c2.984,0,5.294,0.886,6.93,2.656s2.454,4.256,2.454,7.456V42.79H135.524z"/>
</g>
<g>
	<path fill="#989898" d="M37.615,50.279H36.48v-1.373h1.135v-2.051l1.739-0.668v2.719h2.691v1.373h-2.691v4.869
		c0,0.824,0.139,1.409,0.417,1.758c0.277,0.348,0.725,0.521,1.341,0.521c0.445,0,0.906-0.113,1.382-0.339l0.256,1.528
		c-0.72,0.184-1.51,0.274-2.371,0.274c-0.775,0-1.429-0.288-1.963-0.864c-0.534-0.577-0.801-1.305-0.801-2.184V50.279z"/>
	<path fill="#989898" d="M52.681,53.977h-7.066c0,1.147,0.314,2.029,0.942,2.646c0.555,0.537,1.27,0.806,2.142,0.806
		c0.995,0,1.824-0.29,2.49-0.87l0.732,1.254c-0.269,0.27-0.68,0.501-1.235,0.696c-0.696,0.256-1.471,0.384-2.325,0.384
		c-1.232,0-2.279-0.417-3.139-1.254c-0.958-0.921-1.438-2.16-1.438-3.716c0-1.617,0.491-2.914,1.474-3.89
		c0.879-0.873,1.919-1.31,3.122-1.31c1.397,0,2.493,0.394,3.286,1.181c0.769,0.757,1.153,1.761,1.153,3.012
		C52.818,53.3,52.773,53.653,52.681,53.977z M48.461,50.188c-0.775,0-1.425,0.25-1.949,0.751c-0.5,0.476-0.784,1.067-0.852,1.775
		h5.428c0-0.702-0.219-1.288-0.659-1.758C49.947,50.443,49.292,50.188,48.461,50.188z"/>
	<path fill="#989898" d="M62.045,49.702l-0.86,1.227c-0.177-0.177-0.49-0.345-0.938-0.503c-0.449-0.159-0.89-0.238-1.323-0.238
		c-0.946,0-1.697,0.331-2.252,0.993s-0.833,1.569-0.833,2.723c0,1.147,0.284,2.021,0.851,2.623c0.567,0.601,1.354,0.901,2.361,0.901
		c0.781,0,1.568-0.302,2.362-0.906l0.687,1.465c-0.934,0.604-2.09,0.905-3.469,0.905c-1.336,0-2.441-0.448-3.313-1.345
		c-0.873-0.897-1.309-2.111-1.309-3.644c0-1.562,0.453-2.815,1.359-3.762c0.906-0.945,2.146-1.419,3.721-1.419
		c0.506,0,1.056,0.107,1.647,0.32C61.328,49.257,61.764,49.477,62.045,49.702z"/>
	<path fill="#989898" d="M69.972,58.709v-6.16c0-0.732-0.18-1.309-0.54-1.729c-0.36-0.421-0.867-0.632-1.52-0.632
		c-0.421,0-0.844,0.123-1.268,0.371c-0.424,0.247-0.75,0.535-0.975,0.864v7.286h-1.739V44.888h1.739v5.099
		c0.232-0.36,0.605-0.661,1.122-0.901c0.516-0.241,1.048-0.362,1.597-0.362c1.037,0,1.85,0.342,2.439,1.025s0.883,1.617,0.883,2.801
		v6.16H69.972z"/>
	<path fill="#989898" d="M80.205,58.709v-5.702c0-1.044-0.157-1.774-0.471-2.192c-0.314-0.418-0.841-0.627-1.579-0.627
		c-0.397,0-0.812,0.119-1.245,0.356c-0.434,0.238-0.766,0.531-0.998,0.879v7.286h-1.739v-9.803h1.19l0.549,1.263
		c0.574-0.964,1.51-1.446,2.81-1.446c2.148,0,3.222,1.307,3.222,3.918v6.068H80.205z"/>
	<path fill="#989898" d="M83.774,53.784c0-1.513,0.408-2.734,1.222-3.665s1.887-1.396,3.217-1.396c1.403,0,2.493,0.447,3.268,1.341
		c0.775,0.895,1.163,2.135,1.163,3.721c0,1.581-0.397,2.827-1.19,3.739c-0.793,0.912-1.874,1.368-3.24,1.368
		c-1.397,0-2.487-0.46-3.268-1.382C84.165,56.589,83.774,55.347,83.774,53.784z M85.605,53.784c0,2.46,0.869,3.689,2.608,3.689
		c0.812,0,1.448-0.33,1.908-0.989c0.461-0.658,0.691-1.559,0.691-2.7c0-2.428-0.867-3.643-2.6-3.643
		c-0.793,0-1.426,0.323-1.899,0.971C85.842,51.759,85.605,52.649,85.605,53.784z"/>
	<path fill="#989898" d="M94.612,55.936V44.888h1.739v10.755c0,0.525,0.151,0.938,0.453,1.24c0.302,0.302,0.697,0.453,1.186,0.453
		v1.556C95.738,58.892,94.612,57.906,94.612,55.936z"/>
	<path fill="#989898" d="M99.362,53.784c0-1.513,0.408-2.734,1.222-3.665s1.887-1.396,3.217-1.396c1.403,0,2.493,0.447,3.268,1.341
		c0.775,0.895,1.163,2.135,1.163,3.721c0,1.581-0.397,2.827-1.19,3.739c-0.793,0.912-1.874,1.368-3.24,1.368
		c-1.397,0-2.487-0.46-3.268-1.382C99.752,56.589,99.362,55.347,99.362,53.784z M101.193,53.784c0,2.46,0.869,3.689,2.608,3.689
		c0.812,0,1.448-0.33,1.908-0.989c0.461-0.658,0.691-1.559,0.691-2.7c0-2.428-0.867-3.643-2.6-3.643
		c-0.793,0-1.426,0.323-1.899,0.971C101.429,51.759,101.193,52.649,101.193,53.784z"/>
	<path fill="#989898" d="M109.706,61.391L110.648,60c1.013,0.677,1.947,1.016,2.801,1.016c0.788,0,1.408-0.136,1.863-0.407
		s0.682-0.608,0.682-1.012c0-0.793-0.574-1.189-1.721-1.189c-0.196,0-0.549,0.049-1.062,0.146s-0.912,0.146-1.199,0.146
		c-1.391,0-2.087-0.525-2.087-1.574c0-0.324,0.164-0.617,0.49-0.879c0.327-0.263,0.731-0.452,1.213-0.567
		c-1.379-0.647-2.068-1.77-2.068-3.369c0-1.024,0.357-1.879,1.071-2.563s1.596-1.025,2.645-1.025c0.964,0,1.718,0.198,2.261,0.596
		l0.87-1.044l1.135,1.071l-1.043,0.787c0.445,0.579,0.668,1.336,0.668,2.27c0,0.988-0.308,1.818-0.924,2.49
		c-0.617,0.671-1.425,1.056-2.426,1.153l-1.437,0.146c-0.171,0.019-0.399,0.084-0.687,0.197c-0.287,0.113-0.43,0.261-0.43,0.444
		c0,0.25,0.299,0.375,0.897,0.375c0.263,0,0.671-0.047,1.227-0.142s0.967-0.143,1.236-0.143c0.964,0,1.716,0.23,2.256,0.691
		s0.81,1.1,0.81,1.918c0,0.902-0.404,1.632-1.213,2.188c-0.809,0.555-1.832,0.833-3.071,0.833c-0.635,0-1.303-0.113-2.005-0.339
		S110.132,61.714,109.706,61.391z M113.394,50.123c-0.604,0-1.097,0.214-1.478,0.641c-0.382,0.428-0.572,0.946-0.572,1.557
		c0,0.684,0.185,1.249,0.554,1.697c0.369,0.449,0.868,0.673,1.497,0.673c0.616,0,1.098-0.218,1.446-0.654
		c0.348-0.436,0.521-1.008,0.521-1.716c0-0.61-0.188-1.129-0.563-1.557C114.424,50.337,113.956,50.123,113.394,50.123z"/>
	<path fill="#989898" d="M120.313,58.709V50.37h-1.345v-1.464h3.084v9.803H120.313z M121.266,45.199
		c0.299,0,0.554,0.105,0.764,0.315c0.21,0.211,0.316,0.462,0.316,0.755c0,0.3-0.105,0.554-0.316,0.765s-0.465,0.315-0.764,0.315
		c-0.293,0-0.545-0.104-0.755-0.315s-0.315-0.465-0.315-0.765c0-0.299,0.104-0.552,0.311-0.76
		C120.713,45.303,120.966,45.199,121.266,45.199z"/>
	<path fill="#989898" d="M133.073,53.977h-7.066c0,1.147,0.314,2.029,0.942,2.646c0.555,0.537,1.27,0.806,2.142,0.806
		c0.995,0,1.824-0.29,2.49-0.87l0.732,1.254c-0.269,0.27-0.68,0.501-1.235,0.696c-0.696,0.256-1.471,0.384-2.325,0.384
		c-1.232,0-2.279-0.417-3.139-1.254c-0.958-0.921-1.438-2.16-1.438-3.716c0-1.617,0.491-2.914,1.474-3.89
		c0.879-0.873,1.919-1.31,3.122-1.31c1.397,0,2.493,0.394,3.286,1.181c0.769,0.757,1.153,1.761,1.153,3.012
		C133.21,53.3,133.165,53.653,133.073,53.977z M128.853,50.188c-0.775,0-1.425,0.25-1.949,0.751c-0.5,0.476-0.784,1.067-0.852,1.775
		h5.428c0-0.702-0.219-1.288-0.659-1.758C130.339,50.443,129.683,50.188,128.853,50.188z"/>
	<path fill="#989898" d="M134.4,58.123l0.613-1.647c0.97,0.635,1.751,0.952,2.343,0.952c1.074,0,1.611-0.452,1.611-1.354
		c0-0.647-0.519-1.202-1.556-1.666c-0.8-0.366-1.338-0.644-1.616-0.833s-0.519-0.404-0.723-0.646s-0.357-0.497-0.458-0.769
		s-0.151-0.563-0.151-0.874c0-0.806,0.293-1.435,0.878-1.886c0.586-0.451,1.352-0.678,2.297-0.678c0.714,0,1.614,0.227,2.7,0.678
		l-0.494,1.611c-0.689-0.55-1.382-0.824-2.078-0.824c-0.415,0-0.764,0.098-1.048,0.293c-0.284,0.195-0.425,0.442-0.425,0.741
		c0,0.629,0.357,1.104,1.071,1.428l1.245,0.567c0.763,0.349,1.318,0.745,1.666,1.19s0.522,1.004,0.522,1.675
		c0,0.879-0.309,1.566-0.925,2.064c-0.616,0.497-1.471,0.745-2.563,0.745C136.279,58.892,135.309,58.636,134.4,58.123z"/>
</g>
<g>
	<rect x="-76.055" y="49.5" fill="none" width="611.555" height="58.25"/>
	<path fill="#676767" d="M162.361,50.08c0.575-0.12,1.331-0.192,2.122-0.192c0.852,0,1.464,0.108,2.003,0.42
		c0.54,0.276,0.936,0.804,0.936,1.487c0,1.02-0.743,1.655-1.631,1.907v0.036c0.779,0.239,1.271,0.875,1.271,1.763
		c0,0.875-0.468,1.499-1.104,1.919c-0.684,0.468-1.703,0.659-3.047,0.659c-0.911,0-1.643-0.06-2.038-0.144L162.361,50.08z
		 M162.793,56.7c0.203,0.024,0.407,0.024,0.659,0.024c0.936,0,1.787-0.372,1.787-1.271c0-0.804-0.672-1.044-1.476-1.044h-0.539
		L162.793,56.7z M163.488,53.15h0.575c0.948,0,1.596-0.396,1.596-1.092c0-0.575-0.468-0.827-1.128-0.827
		c-0.3,0-0.552,0.023-0.684,0.048L163.488,53.15z"/>
	<path fill="#676767" d="M174.142,52.154l-0.743,3.958c-0.145,0.744-0.24,1.38-0.324,1.907h-1.523l0.108-0.947l-0.024-0.012
		c-0.6,0.768-1.307,1.091-2.015,1.091c-0.947,0-1.511-0.527-1.511-1.643c0-0.313,0.035-0.672,0.119-1.08l0.624-3.274h1.727
		l-0.6,3.143c-0.048,0.264-0.084,0.563-0.084,0.779c0,0.372,0.156,0.672,0.588,0.672c0.588,0,1.199-0.707,1.415-1.871l0.516-2.723
		H174.142z"/>
	<path fill="#676767" d="M174.493,58.02l1.115-5.865h1.715l-1.104,5.865H174.493z M176.676,51.387c-0.504,0-0.876-0.359-0.876-0.899
		c0-0.623,0.492-1.043,1.056-1.043c0.54,0,0.924,0.348,0.924,0.899c0,0.659-0.504,1.043-1.092,1.043H176.676z"/>
	<path fill="#676767" d="M177.673,58.02l1.631-8.516h1.727l-1.631,8.516H177.673z"/>
	<path fill="#676767" d="M187.725,49.504l-1.188,6.237c-0.132,0.755-0.24,1.583-0.275,2.278h-1.571l0.084-0.947h-0.024
		c-0.516,0.779-1.235,1.079-1.931,1.079c-0.996,0-1.812-0.791-1.812-2.207c0-2.038,1.476-3.922,3.694-3.922
		c0.24,0,0.552,0.048,0.792,0.145l0.516-2.663H187.725z M185.254,53.546c-0.145-0.12-0.396-0.204-0.684-0.204
		c-1.031,0-1.764,1.188-1.764,2.315c0,0.707,0.301,1.103,0.804,1.103c0.504,0,1.116-0.527,1.332-1.643L185.254,53.546z"/>
	<path fill="#676767" d="M187.572,58.02l1.115-5.865h1.715l-1.104,5.865H187.572z M189.755,51.387c-0.504,0-0.876-0.359-0.876-0.899
		c0-0.623,0.492-1.043,1.056-1.043c0.54,0,0.924,0.348,0.924,0.899c0,0.659-0.504,1.043-1.092,1.043H189.755z"/>
	<path fill="#676767" d="M190.752,58.02l0.743-3.958c0.144-0.743,0.24-1.379,0.312-1.907h1.523l-0.107,0.972h0.023
		c0.552-0.755,1.283-1.104,2.051-1.104c0.96,0,1.512,0.588,1.512,1.607c0,0.264-0.048,0.695-0.097,0.983l-0.647,3.406h-1.727
		l0.611-3.25c0.036-0.204,0.061-0.432,0.061-0.647c0-0.42-0.145-0.708-0.588-0.708c-0.564,0-1.212,0.708-1.464,2.003l-0.479,2.603
		H190.752z"/>
	<path fill="#676767" d="M197.892,58.835c0.323,0.192,1.031,0.324,1.535,0.324c0.863,0,1.499-0.384,1.751-1.56l0.096-0.504h-0.024
		c-0.455,0.6-0.983,0.876-1.679,0.876c-1.163,0-1.871-0.947-1.883-2.099c-0.012-1.932,1.379-3.851,3.934-3.851
		c0.828,0,1.547,0.156,2.171,0.408l-0.888,4.833c-0.204,1.08-0.539,2.039-1.235,2.603c-0.636,0.504-1.487,0.66-2.267,0.66
		c-0.791,0-1.511-0.145-1.919-0.372L197.892,58.835z M201.921,53.45c-0.132-0.061-0.384-0.108-0.623-0.108
		c-1.044,0-1.787,1.164-1.787,2.267c0,0.601,0.264,1.032,0.791,1.032c0.563,0,1.128-0.636,1.319-1.619L201.921,53.45z"/>
	<path fill="#676767" d="M206.844,56.148c0.479,0.288,1.151,0.516,1.906,0.516c0.66,0,1.271-0.312,1.271-0.936
		c0-0.468-0.348-0.755-1.091-1.151c-0.852-0.455-1.667-1.104-1.667-2.146c0-1.631,1.415-2.627,3.178-2.627
		c0.972,0,1.547,0.216,1.896,0.396l-0.54,1.438c-0.264-0.144-0.827-0.359-1.499-0.348c-0.804,0-1.224,0.396-1.224,0.84
		c0,0.479,0.492,0.768,1.176,1.151c0.983,0.516,1.595,1.175,1.595,2.146c0,1.799-1.487,2.723-3.274,2.723
		c-1.115-0.012-1.931-0.3-2.303-0.575L206.844,56.148z"/>
	<path fill="#676767" d="M218.912,52.154l-0.743,3.958c-0.145,0.744-0.24,1.38-0.324,1.907h-1.523l0.108-0.947l-0.024-0.012
		c-0.6,0.768-1.307,1.091-2.015,1.091c-0.947,0-1.511-0.527-1.511-1.643c0-0.313,0.035-0.672,0.119-1.08l0.624-3.274h1.727
		l-0.6,3.143c-0.048,0.264-0.084,0.563-0.084,0.779c0,0.372,0.156,0.672,0.588,0.672c0.588,0,1.199-0.707,1.415-1.871l0.517-2.723
		H218.912z"/>
	<path fill="#676767" d="M223.569,57.84c-0.372,0.18-0.972,0.312-1.667,0.312c-1.451,0-2.471-0.888-2.471-2.41
		c0-2.087,1.595-3.719,3.825-3.719c0.504,0,0.936,0.097,1.199,0.204l-0.432,1.319c-0.203-0.084-0.443-0.144-0.791-0.144
		c-1.224,0-1.991,1.043-1.991,2.146c0,0.815,0.516,1.224,1.151,1.224c0.504,0,0.863-0.12,1.163-0.24L223.569,57.84z"/>
	<path fill="#676767" d="M228.766,57.84c-0.372,0.18-0.972,0.312-1.667,0.312c-1.452,0-2.471-0.888-2.471-2.41
		c0-2.087,1.595-3.719,3.825-3.719c0.504,0,0.936,0.097,1.199,0.204l-0.432,1.319c-0.203-0.084-0.443-0.144-0.791-0.144
		c-1.224,0-1.991,1.043-1.991,2.146c0,0.815,0.516,1.224,1.151,1.224c0.504,0,0.863-0.12,1.163-0.24L228.766,57.84z"/>
	<path fill="#676767" d="M234.441,57.684c-0.684,0.348-1.535,0.468-2.184,0.468c-1.679,0-2.542-0.947-2.542-2.482
		c0-1.787,1.295-3.646,3.418-3.646c1.188,0,2.039,0.672,2.039,1.764c0,1.487-1.451,2.026-3.802,1.967c0,0.168,0.06,0.432,0.18,0.6
		c0.228,0.3,0.624,0.456,1.127,0.456c0.636,0,1.176-0.145,1.644-0.372L234.441,57.684z M233.554,53.773
		c0-0.287-0.24-0.491-0.636-0.491c-0.804,0-1.26,0.672-1.379,1.211c1.343,0.013,2.015-0.168,2.015-0.707V53.773z"/>
	<path fill="#676767" d="M235.764,56.484c0.336,0.168,0.971,0.408,1.535,0.408c0.479,0,0.731-0.24,0.731-0.528
		s-0.192-0.491-0.731-0.756c-0.672-0.335-1.235-0.827-1.235-1.559c0-1.224,1.067-2.027,2.578-2.027c0.684,0,1.224,0.145,1.499,0.3
		l-0.407,1.224c-0.24-0.107-0.66-0.252-1.176-0.252c-0.455,0-0.755,0.192-0.755,0.516c0,0.24,0.239,0.444,0.707,0.66
		c0.647,0.323,1.319,0.804,1.319,1.619c0,1.343-1.14,2.074-2.698,2.063c-0.731-0.012-1.439-0.204-1.787-0.456L235.764,56.484z"/>
	<path fill="#676767" d="M240.756,56.484c0.336,0.168,0.971,0.408,1.535,0.408c0.479,0,0.731-0.24,0.731-0.528
		s-0.192-0.491-0.731-0.756c-0.672-0.335-1.235-0.827-1.235-1.559c0-1.224,1.067-2.027,2.578-2.027c0.684,0,1.224,0.145,1.499,0.3
		l-0.407,1.224c-0.24-0.107-0.66-0.252-1.176-0.252c-0.455,0-0.755,0.192-0.755,0.516c0,0.24,0.239,0.444,0.707,0.66
		c0.647,0.323,1.319,0.804,1.319,1.619c0,1.343-1.14,2.074-2.698,2.063c-0.731-0.012-1.439-0.204-1.787-0.456L240.756,56.484z"/>
	<path fill="#676767" d="M250.391,51.447h-2.135l0.3-1.512h6.009l-0.288,1.512h-2.159l-1.247,6.572h-1.727L250.391,51.447z"/>
	<path fill="#676767" d="M255.683,58.151c-1.499,0-2.494-0.972-2.494-2.423c0-2.026,1.415-3.706,3.502-3.706
		c1.583,0,2.495,1.08,2.495,2.423c0,2.135-1.476,3.706-3.49,3.706H255.683z M255.911,56.832c0.936,0,1.475-1.379,1.475-2.375
		c0-0.551-0.239-1.115-0.923-1.115c-0.996,0-1.5,1.439-1.5,2.351c0,0.684,0.349,1.14,0.936,1.14H255.911z"/>
	<path fill="#676767" d="M260.161,58.835c0.323,0.192,1.031,0.324,1.535,0.324c0.863,0,1.499-0.384,1.751-1.56l0.096-0.504h-0.024
		c-0.455,0.6-0.983,0.876-1.679,0.876c-1.163,0-1.871-0.947-1.883-2.099c-0.012-1.932,1.379-3.851,3.934-3.851
		c0.828,0,1.547,0.156,2.171,0.408l-0.888,4.833c-0.204,1.08-0.539,2.039-1.235,2.603c-0.636,0.504-1.487,0.66-2.267,0.66
		c-0.791,0-1.511-0.145-1.919-0.372L260.161,58.835z M264.19,53.45c-0.132-0.061-0.384-0.108-0.623-0.108
		c-1.044,0-1.787,1.164-1.787,2.267c0,0.601,0.264,1.032,0.791,1.032c0.563,0,1.128-0.636,1.319-1.619L264.19,53.45z"/>
	<path fill="#676767" d="M271.379,57.684c-0.684,0.348-1.535,0.468-2.184,0.468c-1.679,0-2.542-0.947-2.542-2.482
		c0-1.787,1.295-3.646,3.418-3.646c1.188,0,2.039,0.672,2.039,1.764c0,1.487-1.451,2.026-3.802,1.967c0,0.168,0.06,0.432,0.18,0.6
		c0.228,0.3,0.624,0.456,1.127,0.456c0.636,0,1.176-0.145,1.644-0.372L271.379,57.684z M270.491,53.773
		c0-0.287-0.24-0.491-0.636-0.491c-0.804,0-1.26,0.672-1.379,1.211c1.343,0.013,2.015-0.168,2.015-0.707V53.773z"/>
	<path fill="#676767" d="M275.795,50.571l-0.3,1.583h1.26l-0.264,1.319h-1.248l-0.396,1.979c-0.048,0.239-0.096,0.539-0.096,0.743
		c0,0.288,0.12,0.492,0.504,0.492c0.144,0,0.323,0,0.468-0.024l-0.192,1.355c-0.228,0.084-0.659,0.132-1.02,0.132
		c-1.043,0-1.535-0.527-1.535-1.271c0-0.312,0.036-0.636,0.132-1.079l0.444-2.327h-0.744l0.24-1.319h0.756l0.216-1.103
		L275.795,50.571z"/>
	<path fill="#676767" d="M276.661,58.02l1.619-8.516h1.727l-0.659,3.406h0.023c0.492-0.539,1.104-0.888,1.871-0.888
		c0.911,0,1.476,0.576,1.476,1.583c0,0.276-0.048,0.732-0.108,1.056l-0.636,3.358h-1.727l0.611-3.214
		c0.048-0.229,0.072-0.48,0.072-0.72c0-0.396-0.156-0.672-0.588-0.672c-0.611,0-1.224,0.743-1.439,1.919l-0.516,2.687H276.661z"/>
	<path fill="#676767" d="M288.322,57.684c-0.684,0.348-1.535,0.468-2.184,0.468c-1.679,0-2.542-0.947-2.542-2.482
		c0-1.787,1.295-3.646,3.418-3.646c1.188,0,2.039,0.672,2.039,1.764c0,1.487-1.451,2.026-3.802,1.967c0,0.168,0.06,0.432,0.18,0.6
		c0.228,0.3,0.624,0.456,1.127,0.456c0.636,0,1.176-0.145,1.644-0.372L288.322,57.684z M287.435,53.773
		c0-0.287-0.24-0.491-0.636-0.491c-0.804,0-1.26,0.672-1.379,1.211c1.343,0.013,2.015-0.168,2.015-0.707V53.773z"/>
	<path fill="#676767" d="M289.416,58.02l0.672-3.49c0.156-0.888,0.24-1.871,0.3-2.375h1.487c-0.024,0.396-0.06,0.792-0.107,1.212
		h0.048c0.407-0.792,1.055-1.344,1.858-1.344c0.12,0,0.229,0.013,0.324,0.013l-0.336,1.69c-0.072-0.012-0.168-0.012-0.264-0.012
		c-1.092,0-1.619,0.972-1.835,2.123l-0.408,2.183H289.416z"/>
	<path fill="#676767" d="M296.281,51.173c1.239,0,2.229,1.01,2.229,2.249c0,1.26-0.989,2.259-2.238,2.259
		c-1.239,0-2.249-0.999-2.249-2.259c0-1.239,1.01-2.249,2.249-2.249H296.281z M296.262,51.623c-0.939,0-1.699,0.81-1.699,1.809
		c0,1.01,0.76,1.8,1.709,1.8c0.949,0.01,1.719-0.79,1.719-1.8c0-0.999-0.77-1.809-1.719-1.809H296.262z M295.882,54.731h-0.53
		v-2.499c0.2-0.029,0.42-0.069,0.8-0.069c0.43,0,0.689,0.069,0.859,0.199c0.141,0.11,0.22,0.28,0.22,0.54
		c0,0.3-0.209,0.51-0.479,0.58v0.02c0.22,0.04,0.36,0.24,0.4,0.609c0.05,0.391,0.1,0.54,0.14,0.62h-0.55
		c-0.06-0.09-0.1-0.31-0.149-0.649c-0.04-0.271-0.2-0.38-0.471-0.38h-0.239V54.731z M295.882,53.292h0.25
		c0.31,0,0.55-0.1,0.55-0.359c0-0.21-0.15-0.37-0.51-0.37c-0.13,0-0.221,0-0.29,0.01V53.292z"/>
</g>
</svg>
